<svg version="1.0" xmlns="http://www.w3.org/2000/svg"
 width="80.000000pt" height="64.000000pt" viewBox="0 0 64.000000 64.000000">

<g transform="translate(0.000000,64.000000) scale(0.100000,-0.100000)"
fill="#fff" stroke="none">
    <path d="M87 612 c-10 -10 -17 -24 -17 -30 0 -7 -6 -12 -13 -12 -23 0 -47 -35
-47 -66 0 -36 22 -70 62 -94 27 -16 28 -19 13 -34 -9 -9 -23 -16 -31 -16 -8 0
-14 -4 -14 -10 0 -16 26 -11 54 11 25 20 26 20 26 1 0 -27 31 -52 64 -52 24 0
28 -3 22 -23 -3 -12 -6 -25 -6 -29 0 -4 -15 -8 -32 -10 -29 -3 -35 -9 -47 -44
-25 -73 -21 -75 141 -72 l143 3 -1 42 c-1 49 -17 73 -50 73 -17 0 -28 8 -34
26 -13 34 -14 34 18 34 29 0 62 26 62 48 0 17 15 15 30 -3 14 -17 50 -20 50
-5 0 6 -6 10 -13 10 -8 0 -22 9 -31 19 -17 18 -16 19 3 26 33 10 71 63 71 99
0 32 -25 66 -48 66 -7 0 -12 6 -12 13 0 8 -8 21 -18 30 -16 14 -43 17 -174 17
-137 0 -157 -2 -171 -18z m341 -24 c3 -17 -10 -18 -167 -18 -136 0 -171 3
-171 13 0 8 3 17 7 21 4 3 79 5 167 4 144 -3 161 -5 164 -20z m-341 -93 c16
-61 16 -75 3 -75 -24 0 -60 50 -60 83 0 68 38 63 57 -8z m316 -42 c-14 -54
-30 -104 -36 -110 -6 -9 -42 -13 -113 -13 l-103 0 -15 53 c-8 28 -22 78 -30
110 l-14 57 168 0 168 0 -25 -97z m85 68 c6 -38 -7 -70 -33 -87 -14 -9 -28
-14 -31 -11 -6 6 13 103 23 120 10 16 38 1 41 -22z m-198 -237 c14 -35 15 -34
-30 -34 -42 0 -43 1 -34 38 9 32 51 30 64 -4z m88 -71 c3 -10 -25 -13 -117
-13 -111 0 -133 5 -114 24 13 12 226 2 231 -11z m12 -48 c0 -13 -21 -15 -130
-15 -109 0 -130 2 -130 15 0 13 21 15 130 15 109 0 130 -2 130 -15z"/>
    <path d="M215 485 c-14 -13 -25 -33 -25 -45 0 -29 44 -70 74 -70 28 0 66 42
66 72 0 25 -44 68 -70 68 -11 0 -32 -11 -45 -25z m79 -11 c31 -30 9 -84 -34
-84 -24 0 -50 26 -50 50 0 24 26 50 50 50 10 0 26 -7 34 -16z"/>
</g>
</svg>
